<svg xmlns="http://www.w3.org/2000/svg" width="300" height="300" viewBox="0 0 300 300"><rect width="100%" height="100%" fill="#f5f5f5"/><path fill="#FF8600" d="M67.05 132.09v24.67h12.97v4.48H61.2v-29.15h5.85ZM82 150.63v-.42q0-4.85 2.71-7.94 2.7-3.09 7.48-3.09 4.81 0 7.53 3.08 2.72 3.08 2.72 7.95v.42q0 4.88-2.71 7.96-2.71 3.07-7.5 3.07-4.8 0-7.51-3.07-2.72-3.08-2.72-7.96Zm5.83-.42v.42q0 2.96 1.04 4.75 1.04 1.8 3.36 1.8 2.27 0 3.32-1.81 1.05-1.8 1.05-4.74v-.42q0-2.88-1.06-4.71-1.06-1.82-3.35-1.82-2.26 0-3.31 1.83-1.05 1.84-1.05 4.7Zm36.77 11.03h-5.84q-.32-.74-.55-1.56-.23-.82-.33-1.68-.9 1.58-2.37 2.62-1.48 1.04-3.52 1.04-3.4 0-5.24-1.75-1.84-1.75-1.84-4.78 0-3.18 2.45-4.93 2.45-1.75 7.16-1.75h3.26v-1.72q0-1.57-.82-2.43-.82-.86-2.42-.86-1.43 0-2.2.69-.77.69-.77 1.92l-5.64-.02-.02-.12q-.14-2.75 2.38-4.74 2.52-1.99 6.63-1.99 3.88 0 6.3 1.97t2.42 5.62v8.94q0 1.53.23 2.87t.73 2.66Zm-11.19-3.9q1.55 0 2.75-.76 1.2-.77 1.62-1.77v-3.06h-3.26q-1.87 0-2.83.93t-.96 2.25q0 1.08.72 1.75.72.66 1.96.66Zm13.76-6.33v-.42q0-5.13 2.21-8.27 2.21-3.14 6.24-3.14 1.62 0 2.92.7 1.3.7 2.28 2v-11.87h5.87v31.23h-5.03l-.48-2.64q-1.02 1.5-2.41 2.28-1.39.78-3.19.78-3.99 0-6.2-2.92-2.21-2.93-2.21-7.73Zm5.82-.42v.42q0 2.84.96 4.47.97 1.64 3.13 1.64 1.26 0 2.2-.51.94-.52 1.54-1.5v-9.22q-.6-1.03-1.53-1.6-.93-.57-2.17-.57-2.14 0-3.14 1.9-.99 1.91-.99 4.97Zm24.37-11.01v21.66h-5.85v-21.66h5.85Zm0-9.57v4.38h-5.85v-4.38h5.85Zm4.7 9.57h5.45l.26 3.1q1.08-1.66 2.66-2.58 1.58-.92 3.54-.92 3.29 0 5.13 2.06 1.84 2.06 1.84 6.47v13.53h-5.87v-13.51q0-2.19-.88-3.1-.88-.91-2.66-.91-1.16 0-2.08.47-.92.47-1.54 1.33v15.72h-5.85v-21.66Zm22.34 11.43v-.42q0-5.13 2.24-8.27 2.23-3.14 6.25-3.14 1.82 0 3.2.82 1.39.82 2.37 2.34l.46-2.76h5.04v21.56q0 4.22-2.77 6.54-2.77 2.31-7.72 2.31-1.64 0-3.48-.45t-3.4-1.23l1.08-4.37q1.34.64 2.73.97 1.39.33 3.03.33 2.4 0 3.54-1 1.13-1 1.13-3.12v-1.96q-.96 1.22-2.27 1.86-1.3.64-2.98.64-3.98 0-6.21-2.93-2.24-2.94-2.24-7.72Zm5.85-.42v.42q0 2.84.96 4.47.96 1.64 3.12 1.64 1.34 0 2.28-.49.93-.49 1.49-1.44v-9.41q-.56-.98-1.49-1.52-.94-.54-2.24-.54-2.14 0-3.13 1.9-.99 1.91-.99 4.97Zm24.68 5.52v5.13h-5.84v-5.13h5.84Zm11.93 0v5.13h-5.84v-5.13h5.84Zm11.94 0v5.13h-5.85v-5.13h5.85Z"/></svg>
