<svg xmlns="http://www.w3.org/2000/svg" width="100" height="100" viewBox="0 0 100 100"><rect width="100%" height="100%" fill="#f5f5f5"/><path fill="#FF8600" d="M21.67 43.885v8.42h4.43v1.53h-6.42v-9.95h1.99Zm5.11 6.33v-.15q0-1.65.92-2.71.93-1.05 2.56-1.05 1.64 0 2.57 1.05.93 1.05.93 2.71v.15q0 1.66-.93 2.71-.92 1.05-2.56 1.05-1.64 0-2.56-1.05-.93-1.05-.93-2.71Zm1.99-.15v.15q0 1.01.35 1.62.36.61 1.15.61.78 0 1.13-.61.36-.62.36-1.62v-.15q0-.98-.36-1.6-.36-.63-1.14-.63-.77 0-1.13.63-.36.63-.36 1.6Zm12.56 3.77h-2q-.11-.25-.19-.53t-.11-.58q-.31.54-.81.9-.5.35-1.2.35-1.16 0-1.79-.59-.63-.6-.63-1.63 0-1.09.84-1.69.83-.6 2.44-.6H39v-.59q0-.53-.28-.82-.29-.3-.83-.3-.49 0-.75.24-.26.23-.26.65l-1.93-.01-.01-.04q-.05-.93.82-1.61.86-.68 2.26-.68 1.32 0 2.15.67.83.67.83 1.92v3.05q0 .52.08.98.08.46.25.91Zm-3.82-1.33q.52 0 .93-.26.41-.26.56-.6v-1.05h-1.12q-.63 0-.96.32-.33.32-.33.77 0 .37.25.59.24.23.67.23Zm4.69-2.16v-.15q0-1.75.76-2.82.75-1.07 2.13-1.07.55 0 .99.24.45.24.78.68v-4.05h2.01v10.66h-1.72l-.16-.9q-.35.51-.83.78-.47.26-1.09.26-1.36 0-2.11-.99-.76-1-.76-2.64Zm1.99-.15v.15q0 .97.33 1.52.33.56 1.07.56.43 0 .75-.17.32-.18.52-.51v-3.15q-.2-.35-.52-.55-.32-.19-.74-.19-.73 0-1.07.65-.34.65-.34 1.69Zm8.32-3.76v7.4h-2v-7.4h2Zm0-3.26v1.49h-2v-1.49h2Zm1.61 3.26h1.86l.08 1.06q.37-.56.91-.88.54-.31 1.21-.31 1.13 0 1.75.7.63.7.63 2.21v4.62h-2v-4.61q0-.75-.3-1.06-.3-.31-.91-.31-.4 0-.71.16-.32.16-.53.45v5.37h-1.99v-7.4Zm7.63 3.91v-.15q0-1.75.76-2.82.76-1.07 2.13-1.07.63 0 1.1.28.47.28.8.8l.16-.95h1.72v7.37q0 1.44-.94 2.23-.95.79-2.64.79-.56 0-1.19-.16-.63-.15-1.16-.42l.37-1.49q.46.22.93.33.48.12 1.04.12.82 0 1.21-.34.38-.35.38-1.07v-.67q-.33.42-.77.63-.45.22-1.02.22-1.36 0-2.12-1t-.76-2.63Zm1.99-.15v.15q0 .97.33 1.52.33.56 1.07.56.45 0 .77-.17.32-.16.51-.48v-3.22q-.19-.33-.51-.52-.32-.18-.76-.18-.73 0-1.07.65-.34.65-.34 1.69Zm8.43 1.89v1.75h-2v-1.75h2Zm4.07 0v1.75h-1.99v-1.75h1.99Zm4.08 0v1.75h-2v-1.75h2Z"/></svg>
