<svg xmlns="http://www.w3.org/2000/svg" width="200" height="200" viewBox="0 0 200 200"><rect width="100%" height="100%" fill="#f5f5f5"/><path fill="#FF8600" d="M45.375 88.205v16.25h8.54v2.95h-12.39v-19.2h3.85Zm9.84 12.21v-.27q0-3.19 1.78-5.23 1.78-2.04 4.93-2.04 3.17 0 4.96 2.03t1.79 5.24v.27q0 3.22-1.78 5.24-1.79 2.03-4.94 2.03-3.16 0-4.95-2.03-1.79-2.02-1.79-5.24Zm3.84-.27v.27q0 1.95.69 3.13.68 1.18 2.21 1.18 1.49 0 2.18-1.18.69-1.19.69-3.13v-.27q0-1.9-.69-3.1-.7-1.2-2.21-1.2-1.49 0-2.18 1.2-.69 1.21-.69 3.1Zm24.22 7.26h-3.85q-.21-.49-.36-1.03-.16-.54-.22-1.11-.59 1.05-1.56 1.73-.97.69-2.32.69-2.24 0-3.45-1.16-1.21-1.15-1.21-3.14 0-2.1 1.61-3.25 1.62-1.15 4.71-1.15h2.15v-1.14q0-1.03-.54-1.59-.54-.57-1.59-.57-.94 0-1.45.45-.5.46-.5 1.26l-3.72-.01-.02-.08q-.09-1.8 1.57-3.12 1.66-1.31 4.37-1.31 2.56 0 4.15 1.3 1.6 1.3 1.6 3.7v5.89q0 1 .15 1.89.15.88.48 1.75Zm-7.37-2.57q1.01 0 1.8-.5.8-.5 1.07-1.16v-2.02h-2.15q-1.22 0-1.86.61-.63.62-.63 1.49 0 .71.48 1.14.47.44 1.29.44Zm9.06-4.17v-.27q0-3.38 1.45-5.45 1.46-2.07 4.11-2.07 1.07 0 1.92.46.86.46 1.51 1.32v-7.82h3.86v20.57h-3.31l-.32-1.74q-.67.99-1.58 1.5-.92.52-2.11.52-2.62 0-4.08-1.93-1.45-1.92-1.45-5.09Zm3.83-.27v.27q0 1.88.64 2.95.63 1.07 2.05 1.07.83 0 1.45-.33.62-.34 1.02-.98v-6.08q-.4-.67-1.01-1.05t-1.43-.38q-1.41 0-2.07 1.26-.65 1.25-.65 3.27Zm16.05-7.25v14.26h-3.85v-14.26h3.85Zm0-6.31v2.89h-3.85v-2.89h3.85Zm3.09 6.31h3.59l.17 2.04q.71-1.1 1.76-1.7 1.04-.61 2.33-.61 2.16 0 3.37 1.36 1.22 1.36 1.22 4.26v8.91h-3.87v-8.9q0-1.44-.58-2.04-.58-.6-1.75-.6-.76 0-1.37.31-.61.31-1.02.88v10.35h-3.85v-14.26Zm14.72 7.52v-.27q0-3.38 1.47-5.45 1.47-2.07 4.12-2.07 1.2 0 2.11.54.91.54 1.55 1.54l.31-1.81h3.32v14.19q0 2.79-1.83 4.31-1.82 1.52-5.08 1.52-1.08 0-2.29-.3-1.22-.29-2.25-.81l.72-2.87q.88.42 1.8.64.91.22 1.99.22 1.59 0 2.33-.66.75-.66.75-2.06v-1.29q-.64.8-1.49 1.22-.86.43-1.97.43-2.62 0-4.09-1.93-1.47-1.94-1.47-5.09Zm3.85-.27v.27q0 1.88.63 2.95.63 1.07 2.06 1.07.88 0 1.49-.32.62-.32.99-.94v-6.2q-.37-.64-.99-1-.61-.36-1.47-.36-1.41 0-2.06 1.26-.65 1.25-.65 3.27Zm16.25 3.63v3.38h-3.85v-3.38h3.85Zm7.86 0v3.38h-3.85v-3.38h3.85Zm7.86 0v3.38h-3.85v-3.38h3.85Z"/></svg>
