<svg xmlns="http://www.w3.org/2000/svg" width="160" height="40" viewBox="0 0 160 40" role="img" aria-label="Sweet Blue Logo">
    <title>Sweet Blue Logo</title>

    <!-- Icon -->
    <g transform="translate(2,4) scale(1.3)">
        <path d="M0 0h24v24H0z" fill="none" />
        <path fill="#8b5cf6" d="M14 12c0 1.1-.9 2-2 2s-2-.9-2-2s.9-2 2-2s2 .9 2 2m-7-2c-1.1 0-2 .9-2 2s.9 2 2 2s2-.9 2-2s-.9-2-2-2m10 0c-1.1 0-2 .9-2 2s.9 2 2 2s2-.9 2-2s-.9-2-2-2m-2.5-4c-1.1 0-2 .9-2 2s.9 2 2 2s2-.9 2-2s-.9-2-2-2m-5 0c-1.1 0-2 .9-2 2s.9 2 2 2s2-.9 2-2s-.9-2-2-2m5 8c-1.1 0-2 .9-2 2s.9 2 2 2s2-.9 2-2s-.9-2-2-2m-5 0c-1.1 0-2 .9-2 2s.9 2 2 2s2-.9 2-2s-.9-2-2-2m2.5 4c-1.1 0-2 .9-2 2s.9 2 2 2s2-.9 2-2s-.9-2-2-2m2.4-15.8L13.6 1c-2.2 1-2.4 4.6-2.4 5h1.5c.1-.8.4-3.3 1.7-3.8" />
    </g>

    <!-- Text -->
    <text
        x="40"
        y="29"
        font-family="Arial, Helvetica, sans-serif"
        font-size="22"
        font-weight="700"
        fill="rgb(255, 255, 255)">
        Sweet Blue
    </text>
</svg>
